<span>
							Forrest Gump 1994 720p BRRip AC3 5.1CH XVID - StB<br /><br /><img class="imagen" border="0" src="http://leetleech.org/images/66675201888711838081.jpg" /><br /><br />Forrest Gump 1994 720p BRRip AC3 5.1CH XVID - StB | 3.73GB<br /><br />Video<br />ID : 0<br />Format : MPEG-4 Visual<br />Format profile : Advanced Simple@L5<br />Format settings, BVOP : 2<br />Format settings, QPel : No<br />Format settings, GMC : No warppoints<br />Format settings, Matrix : Default (H.263)<br />Codec ID : XVID<br />Codec ID/Hint : XviD<br />Duration : 2h 22mn<br />Bit rate : 3 298 Kbps<br />Width : 1 280 pixels<br />Height : 720 pixels<br />Display aspect ratio : 16:9<br />Frame rate : 19.181 fps<br />Color space : YUV<br />Chroma subsampling : 4:2:0<br />Bit depth : 8 bits<br />Scan type : Progressive<br />Compression mode : Lossy<br />Bits/(Pixel*Frame) : 0.187<br />Stream size : 3.28 GiB (88%)<br />Writing library : XviD 1.2.1 (UTC 2008-12-04)<br /><br />Audio<br />ID : 1<br />Format : AC-3<br />Format/Info : Audio Coding 3<br />Mode extension : CM (complete main)<br />Codec ID : 2000<br />Duration : 2h 22mn<br />Bit rate mode : Constant<br />Bit rate : 448 Kbps<br />Channel(s) : 6 channels<br />Channel positions : Front: L C R, Side: L R, LFE<br />Sampling rate : 48.0 KHz<br />Bit depth : 16 bits<br />Compression mode : Lossy<br />Stream size : 456 MiB (12%)<br />Alignment : Split accross interleaves<br />Interleave, duration : 52 ms (1.00 video frame)<br />Interleave, preload duration : 500 ms<br /><br /><img class="imagen" border="0" src="http://leetleech.org/images/65439369280027767420.jpg" /><br /><br />Download<br /><br /><code><span style="color: #000000">
http://www.wupload.com/file/33148230/Forrest.Gump.1994.720p.BlRRip.kingtheali.avi</span>
</code>								</span>

				

<!-- INI TAG -->
<a href="/tags/free" rel="tag">free</a>
<a href="/tags/download" rel="tag">download</a>
<a href="/tags/Free Download" rel="tag">Free Download</a>
<a href="/tags/wupload" rel="tag">wupload</a>
<a href="/tags/forrest gump 1994. 720p brrip. a" rel="tag">forrest gump 1994. 720p brrip. a</a>
<!-- FIN TAG -->

